# xmcd
#
# Track frame offsets: 
#        150
#        12570
#        27117
#        39405
#        50465
#        64347
#        76102
#        90332
#        100217
#        112210
#        124505
#        136660
#        149190
#        165180
#        178045
#        190752
#        203767
#        215957
#        229780
#        241405
#        252277
#        263545
#        276290
#        292182
#        304142
#        314882
#
# Disc length: 4389 seconds
#
# Revision: 8
# Processed by: cddbd v1.5.2PL0 Copyright (c) Steve Scherf et al.
# Submitted via: ExactAudioCopyFreeDBPlugin 1.0
#
DISCID=8011231a
DTITLE=Various Artist - Chess Blues, 1947-1967 [box set]
DYEAR=1992
DGENRE=Blues
TTITLE0=Little Walter - Mellow Down Easy
TTITLE1=Muddy Waters - My Eyes (Keep Me in Trouble)
TTITLE2=Little Walter - My Babe
TTITLE3=Billy Boy Arnold - You Got to Love Me
TTITLE4=Willie Dixon - Walking the Blues
TTITLE5=Sonny Boy Williamson - Don't Start Me to Talkin'
TTITLE6=Howlin' Wolf - Smokestack Lightnin'
TTITLE7=Willie Dixon - 29 Ways
TTITLE8=Paul Gayten and Myrtle Jones - Right to Love You
TTITLE9=Jimmy Witherspoon - Ain't Nobody's Business
TTITLE10=Otis Spann - I'm Leaving You
TTITLE11=Howlin' Wolf - Break of Day
TTITLE12=Floyd Dixon - Please Don't Go
TTITLE13=Sonny Boy Williamson - Keep it to Yourself
TTITLE14=Jimmy Rogers - Walking By Myself
TTITLE15=Muddy Waters - Got My Mojo Working
TTITLE16=Sonny Boy Williamson - Fattening Frogs For Snakes (alternate)
TTITLE17=Lafayette Leake - Slow Leake
TTITLE18=Howlin' Wolf - Sitting on Top of the World
TTITLE19=J.B. Lenoir - She Don't Know
TTITLE20=Sonny Boy Williamson - Your Funeral and My Trial
TTITLE21=Little Walter - Key to the Highway
TTITLE22=Muddy Waters - Double Trouble (alternate)
TTITLE23=Eddie Boyd - Come on Home
TTITLE24=Sonny Boy Williamson - The Goat (band track)
TTITLE25=Otis Rush - So Many Roads, So Many Trains
EXTD=
EXTT0=
EXTT1=
EXTT2=
EXTT3=
EXTT4=
EXTT5=
EXTT6=
EXTT7=
EXTT8=
EXTT9=
EXTT10=
EXTT11=
EXTT12=
EXTT13=
EXTT14=
EXTT15=
EXTT16=
EXTT17=
EXTT18=
EXTT19=
EXTT20=
EXTT21=
EXTT22=
EXTT23=
EXTT24=
EXTT25=
PLAYORDER=
